<svg width="35" height="35" viewBox="0 0 35 35" fill="none" xmlns="http://www.w3.org/2000/svg">
<rect width="35" height="35" rx="17.5" fill="#E9F3FF"/>
<path d="M26.3334 12.8335C25.707 13.1053 25.0445 13.2849 24.3667 13.3668C25.0818 12.9396 25.6177 12.2675 25.875 11.4752C25.203 11.8752 24.4673 12.1571 23.7 12.3085C23.1871 11.7523 22.5042 11.3821 21.7582 11.2559C21.0122 11.1297 20.2455 11.2546 19.5782 11.6112C18.9109 11.9677 18.3808 12.5356 18.0711 13.2259C17.7613 13.9161 17.6894 14.6897 17.8667 15.4252C16.5079 15.3564 15.1787 15.0026 13.9656 14.3867C12.7524 13.7708 11.6824 12.9066 10.825 11.8502C10.5243 12.3753 10.3663 12.97 10.3667 13.5752C10.3656 14.1372 10.5035 14.6907 10.7681 15.1865C11.0328 15.6823 11.4159 16.1049 11.8834 16.4168C11.34 16.4021 10.8083 16.2563 10.3334 15.9918V16.0335C10.3374 16.8209 10.6133 17.5828 11.1144 18.1901C11.6155 18.7975 12.3111 19.2132 13.0834 19.3668C12.7861 19.4573 12.4774 19.505 12.1667 19.5085C11.9516 19.506 11.737 19.4865 11.525 19.4502C11.7449 20.1275 12.1705 20.7195 12.7426 21.1436C13.3146 21.5678 14.0047 21.8031 14.7167 21.8168C13.5144 22.7629 12.0299 23.2792 10.5 23.2835C10.2215 23.2844 9.94313 23.2677 9.66669 23.2335C11.2287 24.2421 13.049 24.7774 14.9084 24.7752C16.1914 24.7885 17.4643 24.546 18.6526 24.0619C19.8409 23.5778 20.9209 22.8617 21.8294 21.9556C22.7378 21.0494 23.4567 19.9713 23.9438 18.7843C24.431 17.5972 24.6767 16.3249 24.6667 15.0418C24.6667 14.9002 24.6667 14.7502 24.6667 14.6002C25.3206 14.1125 25.8846 13.5147 26.3334 12.8335Z" fill="#0D1759"/>
</svg>
