<svg width="48" height="48" viewBox="0 0 48 48" fill="none" xmlns="http://www.w3.org/2000/svg">
<rect x="48" y="48" width="48" height="48" rx="10" transform="rotate(-180 48 48)" fill="#D0D0D0"/>
<path d="M33 23.2501H16.8075L20.7825 19.2826C20.9237 19.1414 21.003 18.9499 21.003 18.7501C21.003 18.5504 20.9237 18.3589 20.7825 18.2176C20.6412 18.0764 20.4497 17.9971 20.25 17.9971C20.0502 17.9971 19.8587 18.0764 19.7175 18.2176L14.4675 23.4676C14.4069 23.5335 14.3587 23.6097 14.325 23.6926C14.3208 23.7175 14.3208 23.7428 14.325 23.7676C14.3045 23.8283 14.2919 23.8913 14.2875 23.9551V24.0001C14.2878 24.0798 14.3031 24.1586 14.3325 24.2326C14.3636 24.3168 14.4122 24.3935 14.475 24.4576L19.725 29.7076C19.7947 29.7779 19.8776 29.8337 19.969 29.8718C20.0604 29.9099 20.1585 29.9295 20.2575 29.9295C20.3565 29.9295 20.4545 29.9099 20.5459 29.8718C20.6373 29.8337 20.7203 29.7779 20.79 29.7076C20.8603 29.6379 20.9161 29.555 20.9541 29.4636C20.9922 29.3722 21.0118 29.2741 21.0118 29.1751C21.0118 29.0761 20.9922 28.9781 20.9541 28.8867C20.9161 28.7953 20.8603 28.7124 20.79 28.6426L16.8075 24.7501H33C33.1989 24.7501 33.3897 24.6711 33.5303 24.5305C33.671 24.3898 33.75 24.1991 33.75 24.0001C33.75 23.8012 33.671 23.6105 33.5303 23.4698C33.3897 23.3292 33.1989 23.2501 33 23.2501Z" fill="#1E1E1E"/>
</svg>
