<svg width="48" height="48" viewBox="0 0 48 48" fill="none" xmlns="http://www.w3.org/2000/svg">
<rect width="48" height="48" rx="10" fill="#0D1759"/>
<path d="M15 24.7499L31.1925 24.7499L27.2175 28.7174C27.0763 28.8586 26.997 29.0501 26.997 29.2499C26.997 29.4496 27.0763 29.6411 27.2175 29.7824C27.3588 29.9236 27.5503 30.0029 27.75 30.0029C27.9498 30.0029 28.1413 29.9236 28.2825 29.7824L33.5325 24.5324C33.5931 24.4665 33.6413 24.3903 33.675 24.3074C33.6792 24.2825 33.6792 24.2572 33.675 24.2324C33.6955 24.1717 33.7081 24.1087 33.7125 24.0449V23.9999C33.7122 23.9202 33.6969 23.8414 33.6675 23.7674C33.6364 23.6832 33.5878 23.6065 33.525 23.5424L28.275 18.2924C28.2053 18.2221 28.1224 18.1663 28.031 18.1282C27.9396 18.0901 27.8415 18.0705 27.7425 18.0705C27.6435 18.0705 27.5455 18.0901 27.4541 18.1282C27.3627 18.1663 27.2797 18.2221 27.21 18.2924C27.1397 18.3621 27.0839 18.445 27.0459 18.5364C27.0078 18.6278 26.9882 18.7259 26.9882 18.8249C26.9882 18.9239 27.0078 19.0219 27.0459 19.1133C27.0839 19.2047 27.1397 19.2876 27.21 19.3574L31.1925 23.2499L15 23.2499C14.8011 23.2499 14.6103 23.3289 14.4697 23.4695C14.329 23.6102 14.25 23.8009 14.25 23.9999C14.25 24.1988 14.329 24.3895 14.4697 24.5302C14.6103 24.6708 14.8011 24.7499 15 24.7499Z" fill="white"/>
</svg>
