<svg width="35" height="35" viewBox="0 0 35 35" fill="none" xmlns="http://www.w3.org/2000/svg">
<rect width="35" height="35" rx="17.5" fill="#E9F3FF"/>
<path d="M18 15.9332C17.5913 15.9332 17.1917 16.0544 16.8518 16.2815C16.512 16.5086 16.2471 16.8313 16.0907 17.209C15.9342 17.5866 15.8933 18.0021 15.9731 18.403C16.0528 18.8039 16.2496 19.1722 16.5387 19.4612C16.8277 19.7502 17.1959 19.9471 17.5968 20.0268C17.9977 20.1065 18.4133 20.0656 18.7909 19.9092C19.1685 19.7528 19.4913 19.4879 19.7184 19.148C19.9455 18.8082 20.0667 18.4086 20.0667 17.9998C20.0667 17.7284 20.0132 17.4597 19.9094 17.209C19.8055 16.9582 19.6533 16.7304 19.4614 16.5385C19.2695 16.3466 19.0416 16.1943 18.7909 16.0905C18.5402 15.9866 18.2714 15.9332 18 15.9332ZM26.275 13.8915C26.2706 13.248 26.1521 12.6103 25.925 12.0082C25.7578 11.5676 25.499 11.1674 25.1657 10.8342C24.8324 10.5009 24.4323 10.2421 23.9917 10.0748C23.3895 9.84772 22.7519 9.72922 22.1084 9.72484C21.0334 9.6665 20.7167 9.6665 18 9.6665C15.2834 9.6665 14.9667 9.6665 13.8917 9.72484C13.2482 9.72922 12.6105 9.84772 12.0084 10.0748C11.5677 10.2421 11.1676 10.5009 10.8343 10.8342C10.5011 11.1674 10.2423 11.5676 10.075 12.0082C9.84791 12.6103 9.7294 13.248 9.72502 13.8915C9.66669 14.9665 9.66669 15.2832 9.66669 17.9998C9.66669 20.7165 9.66669 21.0332 9.72502 22.1082C9.73399 22.754 9.85233 23.3936 10.075 23.9998C10.2415 24.4384 10.5001 24.8363 10.8334 25.1665C11.1652 25.5018 11.5662 25.7606 12.0084 25.9248C12.6105 26.152 13.2482 26.2705 13.8917 26.2748C14.9667 26.3332 15.2834 26.3332 18 26.3332C20.7167 26.3332 21.0334 26.3332 22.1084 26.2748C22.7519 26.2705 23.3895 26.152 23.9917 25.9248C24.4339 25.7606 24.8349 25.5018 25.1667 25.1665C25.4999 24.8363 25.7585 24.4384 25.925 23.9998C26.1519 23.3947 26.2704 22.7544 26.275 22.1082C26.3334 21.0332 26.3334 20.7165 26.3334 17.9998C26.3334 15.2832 26.3334 14.9665 26.275 13.8915ZM24.1584 20.5582C24.1316 21.0724 24.0219 21.579 23.8334 22.0582C23.6716 22.4579 23.4311 22.821 23.1261 23.126C22.8212 23.4309 22.4581 23.6714 22.0584 23.8332C21.5746 24.0112 21.0652 24.1097 20.55 24.1248C19.8917 24.1248 19.7167 24.1248 18 24.1248C16.2834 24.1248 16.1084 24.1248 15.45 24.1248C14.9348 24.1097 14.4254 24.0112 13.9417 23.8332C13.5284 23.6796 13.1553 23.4346 12.85 23.1165C12.5481 22.8175 12.3149 22.4564 12.1667 22.0582C11.988 21.5749 11.8922 21.065 11.8834 20.5498C11.8834 19.8915 11.8834 19.7165 11.8834 17.9998C11.8834 16.2832 11.8834 16.1082 11.8834 15.4498C11.8922 14.9347 11.988 14.4247 12.1667 13.9415C12.3203 13.5283 12.5652 13.1551 12.8834 12.8498C13.1836 12.5495 13.5444 12.3166 13.9417 12.1665C14.4254 11.9885 14.9348 11.89 15.45 11.8748C16.1084 11.8748 16.2834 11.8748 18 11.8748C19.7167 11.8748 19.8917 11.8748 20.55 11.8748C21.0652 11.89 21.5746 11.9885 22.0584 12.1665C22.4716 12.3201 22.8448 12.5651 23.15 12.8832C23.452 13.1821 23.6852 13.5433 23.8334 13.9415C24.0113 14.4252 24.1098 14.9346 24.125 15.4498C24.125 16.1082 24.125 16.2832 24.125 17.9998C24.125 19.7165 24.1834 19.8915 24.1584 20.5498V20.5582ZM22.825 14.3582C22.7258 14.089 22.5694 13.8445 22.3665 13.6417C22.1637 13.4388 21.9192 13.2824 21.65 13.1832C21.2804 13.0551 20.8911 12.993 20.5 12.9998C19.85 12.9998 19.6667 12.9998 18 12.9998C16.3334 12.9998 16.15 12.9998 15.5 12.9998C15.1069 13.0037 14.7176 13.077 14.35 13.2165C14.085 13.3112 13.8431 13.4613 13.6405 13.6567C13.4379 13.8521 13.2792 14.0884 13.175 14.3498C13.054 14.721 12.9949 15.1095 13 15.4998C13 16.1498 13 16.3332 13 17.9998C13 19.6665 13 19.8498 13 20.4998C13.0083 20.8925 13.0815 21.2811 13.2167 21.6498C13.3159 21.919 13.4723 22.1635 13.6752 22.3663C13.8781 22.5692 14.1225 22.7256 14.3917 22.8248C14.7472 22.9556 15.1214 23.0287 15.5 23.0415C16.15 23.0415 16.3334 23.0415 18 23.0415C19.6667 23.0415 19.85 23.0415 20.5 23.0415C20.8931 23.0377 21.2825 22.9643 21.65 22.8248C21.9192 22.7256 22.1637 22.5692 22.3665 22.3663C22.5694 22.1635 22.7258 21.919 22.825 21.6498C22.9645 21.2823 23.0378 20.8929 23.0417 20.4998C23.0417 19.8498 23.0417 19.6665 23.0417 17.9998C23.0417 16.3332 23.0417 16.1498 23.0417 15.4998C23.0419 15.1063 22.9684 14.7163 22.825 14.3498V14.3582ZM18 21.1832C17.5824 21.1832 17.1688 21.1008 16.7831 20.9407C16.3973 20.7806 16.0469 20.546 15.752 20.2503C15.4571 19.9546 15.2234 19.6036 15.0643 19.2174C14.9052 18.8312 14.8239 18.4175 14.825 17.9998C14.825 17.3699 15.0119 16.7541 15.3621 16.2304C15.7123 15.7067 16.2099 15.2987 16.7921 15.058C17.3742 14.8173 18.0147 14.7548 18.6325 14.8783C19.2502 15.0018 19.8174 15.3058 20.2623 15.7518C20.7071 16.1979 21.0096 16.7659 21.1315 17.3839C21.2534 18.002 21.1892 18.6423 20.947 19.2238C20.7048 19.8054 20.2954 20.302 19.7709 20.6507C19.2463 20.9995 18.63 21.1848 18 21.1832ZM21.3334 15.4415C21.1491 15.422 20.9787 15.335 20.8548 15.1973C20.7309 15.0596 20.6623 14.8809 20.6623 14.6957C20.6623 14.5104 20.7309 14.3317 20.8548 14.194C20.9787 14.0563 21.1491 13.9693 21.3334 13.9498C21.5176 13.9693 21.688 14.0563 21.8119 14.194C21.9359 14.3317 22.0044 14.5104 22.0044 14.6957C22.0044 14.8809 21.9359 15.0596 21.8119 15.1973C21.688 15.335 21.5176 15.422 21.3334 15.4415Z" fill="#0D1759"/>
</svg>
