<svg width="35" height="35" viewBox="0 0 35 35" fill="none" xmlns="http://www.w3.org/2000/svg">
<rect width="35" height="35" rx="17.5" fill="#E9F3FF"/>
<path d="M25.0583 9.66662H10.9417C10.783 9.66442 10.6254 9.69349 10.478 9.75219C10.3305 9.81089 10.1961 9.89805 10.0823 10.0087C9.96858 10.1194 9.87774 10.2514 9.815 10.3971C9.75226 10.5429 9.71885 10.6996 9.71667 10.8583V25.1416C9.71885 25.3003 9.75226 25.457 9.815 25.6028C9.87774 25.7486 9.96858 25.8805 10.0823 25.9912C10.1961 26.1019 10.3305 26.189 10.478 26.2477C10.6254 26.3064 10.783 26.3355 10.9417 26.3333H25.0583C25.217 26.3355 25.3746 26.3064 25.522 26.2477C25.6695 26.189 25.8039 26.1019 25.9177 25.9912C26.0314 25.8805 26.1223 25.7486 26.185 25.6028C26.2478 25.457 26.2812 25.3003 26.2833 25.1416V10.8583C26.2812 10.6996 26.2478 10.5429 26.185 10.3971C26.1223 10.2514 26.0314 10.1194 25.9177 10.0087C25.8039 9.89805 25.6695 9.81089 25.522 9.75219C25.3746 9.69349 25.217 9.66442 25.0583 9.66662ZM14.7417 23.6166H12.2417V16.1166H14.7417V23.6166ZM13.4917 15.0666C13.1469 15.0666 12.8162 14.9297 12.5724 14.6859C12.3286 14.4421 12.1917 14.1114 12.1917 13.7666C12.1917 13.4218 12.3286 13.0912 12.5724 12.8474C12.8162 12.6036 13.1469 12.4666 13.4917 12.4666C13.6748 12.4459 13.8602 12.464 14.0357 12.5199C14.2113 12.5757 14.3731 12.668 14.5106 12.7908C14.648 12.9135 14.7579 13.0639 14.8332 13.232C14.9085 13.4002 14.9474 13.5824 14.9474 13.7666C14.9474 13.9509 14.9085 14.133 14.8332 14.3012C14.7579 14.4694 14.648 14.6198 14.5106 14.7425C14.3731 14.8652 14.2113 14.9575 14.0357 15.0134C13.8602 15.0692 13.6748 15.0874 13.4917 15.0666ZM23.7583 23.6166H21.2583V19.5916C21.2583 18.5833 20.9 17.925 19.9917 17.925C19.7106 17.927 19.4368 18.0152 19.2074 18.1776C18.9779 18.34 18.8037 18.5688 18.7083 18.8333C18.6431 19.0292 18.6149 19.2354 18.625 19.4416V23.6083H16.125C16.125 23.6083 16.125 16.7916 16.125 16.1083H18.625V17.1666C18.8521 16.7725 19.1824 16.4479 19.5804 16.2276C19.9783 16.0074 20.4288 15.8998 20.8833 15.9166C22.55 15.9166 23.7583 16.9916 23.7583 19.3V23.6166Z" fill="#0D1759"/>
</svg>
