<svg width="50" height="50" viewBox="0 0 50 50" fill="none" xmlns="http://www.w3.org/2000/svg">
<path d="M6.25 26.5625L39.9844 26.5625L31.7031 34.8281C31.4089 35.1223 31.2436 35.5214 31.2436 35.9375C31.2436 36.3536 31.4089 36.7526 31.7031 37.0468C31.9973 37.3411 32.3964 37.5063 32.8125 37.5063C33.2286 37.5063 33.6277 37.3411 33.9219 37.0468L44.8594 26.1093C44.9855 25.972 45.086 25.8133 45.1563 25.6406C45.165 25.5889 45.165 25.536 45.1563 25.4843C45.1989 25.358 45.2251 25.2267 45.2344 25.0937V25C45.2337 24.8341 45.2019 24.6698 45.1406 24.5156C45.0758 24.3402 44.9746 24.1804 44.8437 24.0468L33.9062 13.1093C33.761 12.9629 33.5882 12.8466 33.3978 12.7673C33.2074 12.688 33.0031 12.6471 32.7969 12.6471C32.5906 12.6471 32.3864 12.688 32.196 12.7673C32.0056 12.8466 31.8328 12.9629 31.6875 13.1093C31.541 13.2546 31.4248 13.4274 31.3455 13.6178C31.2662 13.8082 31.2253 14.0124 31.2253 14.2187C31.2253 14.425 31.2662 14.6292 31.3455 14.8196C31.4248 15.01 31.541 15.1828 31.6875 15.3281L39.9844 23.4375L6.25 23.4375C5.83559 23.4375 5.43817 23.6021 5.14514 23.8951C4.85212 24.1881 4.6875 24.5856 4.6875 25C4.6875 25.4144 4.85212 25.8118 5.14514 26.1048C5.43817 26.3978 5.83559 26.5625 6.25 26.5625Z" fill="black"/>
</svg>
