<svg width="50" height="50" viewBox="0 0 50 50" fill="none" xmlns="http://www.w3.org/2000/svg">
<path d="M43.75 23.4375H10.0156L18.2969 15.1719C18.5911 14.8777 18.7564 14.4786 18.7564 14.0625C18.7564 13.6464 18.5911 13.2474 18.2969 12.9532C18.0027 12.6589 17.6036 12.4937 17.1875 12.4937C16.7714 12.4937 16.3723 12.6589 16.0781 12.9532L5.14063 23.8907C5.01449 24.028 4.91395 24.1867 4.84375 24.3594C4.83501 24.4111 4.83501 24.464 4.84375 24.5157C4.80115 24.642 4.77489 24.7733 4.76562 24.9063V25C4.76635 25.1659 4.79815 25.3302 4.85937 25.4844C4.92423 25.6598 5.02539 25.8196 5.15625 25.9532L16.0938 36.8907C16.239 37.0371 16.4118 37.1534 16.6022 37.2327C16.7926 37.312 16.9969 37.3529 17.2031 37.3529C17.4094 37.3529 17.6136 37.312 17.804 37.2327C17.9944 37.1534 18.1672 37.0371 18.3125 36.8907C18.459 36.7454 18.5752 36.5726 18.6545 36.3822C18.7338 36.1918 18.7747 35.9876 18.7747 35.7813C18.7747 35.575 18.7338 35.3708 18.6545 35.1804C18.5752 34.99 18.459 34.8172 18.3125 34.6719L10.0156 26.5625H43.75C44.1644 26.5625 44.5618 26.3979 44.8549 26.1049C45.1479 25.8119 45.3125 25.4144 45.3125 25C45.3125 24.5856 45.1479 24.1882 44.8549 23.8952C44.5618 23.6022 44.1644 23.4375 43.75 23.4375Z" fill="black" fill-opacity="0.6"/>
</svg>
