<svg width="30" height="30" viewBox="0 0 30 30" fill="none" xmlns="http://www.w3.org/2000/svg">
<path d="M15 28.75C15.663 28.75 16.2989 28.4866 16.7677 28.0178C17.2366 27.5489 17.5 26.913 17.5 26.25H12.5C12.5 26.913 12.7634 27.5489 13.2322 28.0178C13.7011 28.4866 14.3369 28.75 15 28.75ZM4.99998 23.75H25C25.2472 23.7499 25.4888 23.6766 25.6943 23.5393C25.8998 23.4019 26.06 23.2067 26.1546 22.9783C26.2492 22.7499 26.2739 22.4987 26.2257 22.2562C26.1775 22.0138 26.0585 21.7911 25.8837 21.6162L23.75 19.4825V12.5C23.746 10.3981 22.9861 8.3678 21.6092 6.77974C20.2322 5.19167 18.3301 4.15181 16.25 3.85V2.5C16.25 2.16848 16.1183 1.85054 15.8839 1.61612C15.6494 1.3817 15.3315 1.25 15 1.25C14.6685 1.25 14.3505 1.3817 14.1161 1.61612C13.8817 1.85054 13.75 2.16848 13.75 2.5V3.85C11.6699 4.15181 9.76771 5.19167 8.39078 6.77974C7.01384 8.3678 6.254 10.3981 6.24998 12.5V19.4825L4.11623 21.6162C3.94147 21.7911 3.82246 22.0138 3.77425 22.2562C3.72604 22.4987 3.75079 22.7499 3.84538 22.9783C3.93997 23.2067 4.10014 23.4019 4.30565 23.5393C4.51117 23.6766 4.75279 23.7499 4.99998 23.75ZM8.38373 20.8838C8.61816 20.6494 8.74991 20.3315 8.74998 20V12.5C8.74998 10.8424 9.40846 9.25268 10.5806 8.08058C11.7527 6.90848 13.3424 6.25 15 6.25C16.6576 6.25 18.2473 6.90848 19.4194 8.08058C20.5915 9.25268 21.25 10.8424 21.25 12.5V20C21.25 20.3315 21.3818 20.6494 21.6162 20.8838L21.9825 21.25H8.01748L8.38373 20.8838Z" fill="#1E1E1E" fill-opacity="0.8"/>
</svg>
