<svg width="48" height="48" viewBox="0 0 48 48" fill="none" xmlns="http://www.w3.org/2000/svg">
<path d="M18 19.5H15.0219C16.4149 15.4657 17.6045 13.5338 21.5625 11.8844C22.2231 11.609 22.5968 10.9059 22.4561 10.2042C22.3155 9.50385 21.7002 9 20.9853 9H20.9823C12.725 9.0147 7.9818 12.3252 4.6185 20.417C3.54495 22.9586 3 25.6786 3 28.5C3 32.8389 4.3125 35.2017 6.3135 38.3115C6.5889 38.7407 7.065 39 7.5747 39H18C20.4814 39 22.5 36.9814 22.5 34.5V24C22.5 21.5185 20.4814 19.5 18 19.5ZM40.5 19.5H37.5219C38.915 15.4657 40.1045 13.5338 44.0625 11.8844C44.7231 11.609 45.0967 10.9059 44.956 10.2042C44.8155 9.50385 44.2002 9 43.4853 9H43.4823C35.2249 9.0147 30.4818 12.3252 27.1185 20.417C26.045 22.9586 25.5 25.6786 25.5 28.5C25.5 32.8389 26.8125 35.2017 28.8135 38.3115C29.0889 38.7407 29.565 39 30.0747 39H40.5C42.9814 39 45 36.9814 45 34.5V24C45 21.5185 42.9814 19.5 40.5 19.5Z" fill="#0D1759"/>
</svg>
