<svg width="30" height="30" viewBox="0 0 30 30" fill="none" xmlns="http://www.w3.org/2000/svg">
<path d="M4.52998 18.75C6.2609 20.4833 8.56594 21.5239 11.0109 21.6756C13.4558 21.8274 15.8718 21.0798 17.8037 19.5737L24.4512 26.2212C24.687 26.4489 25.0027 26.5749 25.3305 26.5721C25.6582 26.5692 25.9717 26.4378 26.2035 26.206C26.4353 25.9742 26.5667 25.6607 26.5696 25.333C26.5724 25.0052 26.4464 24.6895 26.2187 24.4537L19.5712 17.8062C21.1441 15.7877 21.8877 13.2452 21.6505 10.6972C21.4132 8.14922 20.2129 5.78772 18.2943 4.09431C16.3758 2.40089 13.8835 1.50312 11.3258 1.58408C8.76809 1.66503 6.33759 2.71862 4.52998 4.52998C3.59598 5.46351 2.85506 6.57191 2.34955 7.79187C1.84405 9.01183 1.58386 10.3194 1.58386 11.64C1.58386 12.9605 1.84405 14.2681 2.34955 15.4881C2.85506 16.708 3.59598 17.8165 4.52998 18.75ZM6.29748 6.29998C7.5332 5.06429 9.15913 4.29528 10.8983 4.12397C12.6374 3.95267 14.3821 4.38966 15.8352 5.36051C17.2882 6.33135 18.3597 7.77597 18.8671 9.44825C19.3745 11.1205 19.2863 12.917 18.6177 14.5316C17.949 16.1461 16.7413 17.4789 15.2001 18.3028C13.659 19.1268 11.8799 19.3909 10.1659 19.0501C8.45188 18.7094 6.90903 17.7849 5.80023 16.4342C4.69142 15.0834 4.08524 13.39 4.08498 11.6425C4.08155 10.6494 4.27536 9.66562 4.65517 8.74808C5.03497 7.83054 5.5932 6.99757 6.29748 6.29748V6.29998Z" fill="#1E1E1E" fill-opacity="0.8"/>
</svg>
