<svg width="23" height="22" viewBox="0 0 23 22" fill="none" xmlns="http://www.w3.org/2000/svg">
<path d="M17.9167 6.41658H15.1667V5.49992C15.1667 4.52746 14.7804 3.59483 14.0927 2.90719C13.4051 2.21956 12.4725 1.83325 11.5 1.83325C10.5275 1.83325 9.59491 2.21956 8.90727 2.90719C8.21964 3.59483 7.83333 4.52746 7.83333 5.49992V6.41658H5.08333C4.84022 6.41658 4.60706 6.51316 4.43515 6.68507C4.26324 6.85698 4.16666 7.09014 4.16666 7.33325V17.4166C4.16666 18.1459 4.4564 18.8454 4.97212 19.3611C5.48785 19.8769 6.18732 20.1666 6.91666 20.1666H16.0833C16.8127 20.1666 17.5121 19.8769 18.0279 19.3611C18.5436 18.8454 18.8333 18.1459 18.8333 17.4166V7.33325C18.8333 7.09014 18.7368 6.85698 18.5648 6.68507C18.3929 6.51316 18.1598 6.41658 17.9167 6.41658ZM9.66666 5.49992C9.66666 5.01369 9.85982 4.54737 10.2036 4.20356C10.5475 3.85974 11.0138 3.66659 11.5 3.66659C11.9862 3.66659 12.4525 3.85974 12.7964 4.20356C13.1402 4.54737 13.3333 5.01369 13.3333 5.49992V6.41658H9.66666V5.49992ZM17 17.4166C17 17.6597 16.9034 17.8929 16.7315 18.0648C16.5596 18.2367 16.3264 18.3333 16.0833 18.3333H6.91666C6.67355 18.3333 6.44039 18.2367 6.26848 18.0648C6.09657 17.8929 6 17.6597 6 17.4166V8.24992H7.83333V9.16658C7.83333 9.4097 7.92991 9.64286 8.10182 9.81477C8.27373 9.98667 8.50688 10.0833 8.75 10.0833C8.99311 10.0833 9.22627 9.98667 9.39818 9.81477C9.57009 9.64286 9.66666 9.4097 9.66666 9.16658V8.24992H13.3333V9.16658C13.3333 9.4097 13.4299 9.64286 13.6018 9.81477C13.7737 9.98667 14.0069 10.0833 14.25 10.0833C14.4931 10.0833 14.7263 9.98667 14.8982 9.81477C15.0701 9.64286 15.1667 9.4097 15.1667 9.16658V8.24992H17V17.4166Z" fill="white"/>
</svg>
