<svg width="24" height="25" viewBox="0 0 24 25" fill="none" xmlns="http://www.w3.org/2000/svg">
<path d="M22 10.5999C22.1 10.0999 21.7 9.49994 21.2 9.49994L15.5 8.69994L12.9 3.49994C12.8 3.29994 12.7 3.19994 12.5 3.09994C12 2.79994 11.4 2.99994 11.1 3.49994L8.6 8.69994L2.9 9.49994C2.6 9.49994 2.4 9.59994 2.3 9.79994C1.9 10.1999 1.9 10.7999 2.3 11.1999L6.4 15.1999L5.4 20.8999C5.4 21.0999 5.4 21.2999 5.5 21.4999C5.8 21.9999 6.4 22.1999 6.9 21.8999L12 19.1999L17.1 21.8999C17.2 21.9999 17.4 21.9999 17.6 21.9999C17.7 21.9999 17.7 21.9999 17.8 21.9999C18.3 21.8999 18.7 21.3999 18.6 20.7999L17.6 15.0999L21.7 11.0999C21.9 10.9999 22 10.7999 22 10.5999Z" fill="#FFD600"/>
</svg>
